<svg xmlns="http://www.w3.org/2000/svg" viewBox="0 0 64 64">
  <rect width="64" height="64" rx="12" fill="#0b0f14"/>
  <g fill="#ffb000">
  <path transform="translate(10.550 48) scale(0.02246 -0.02246)" d="M540 -20Q429 -20 343.5 14.0Q258 48 199.0 112.5Q140 177 109.0 269.0Q78 361 78 479V568Q78 700 108.0 799.5Q138 899 193.0 967.0Q248 1035 328.5 1068.5Q409 1102 511 1102Q613 1102 690.5 1068.5Q768 1035 819.0 968.5Q870 902 896.0 804.0Q922 706 922 576V448H197V645H647V670Q647 736 633.0 780.5Q619 825 589.0 847.0Q559 869 509 869Q467 869 438.0 852.0Q409 835 392.0 799.0Q375 763 367.0 705.5Q359 648 359 568V479Q359 404 372.0 353.5Q385 303 410.5 271.5Q436 240 473.0 226.5Q510 213 559 213Q633 213 692.5 239.5Q752 266 794 312L906 142Q877 104 826.0 66.0Q775 28 704.0 4.0Q633 -20 540 -20Z"/>
  <path transform="translate(32.562 48) scale(0.02246 -0.02246)" d="M635 601 123 825V1103L860 737V537ZM123 416 635 644 860 702V502L123 138Z"/>
  </g>
</svg>